<svg width="28" height="28" viewBox="0 0 28 28" fill="none" xmlns="http://www.w3.org/2000/svg">
<path d="M26.25 26.9062V28H1.75V26.9062C1.75 26.5438 2.04384 26.25 2.40625 26.25H3.5V6.5625C3.5 5.83762 4.08762 5.25 4.8125 5.25H9.625V1.3125C9.625 0.587617 10.2126 0 10.9375 0H17.0625C17.7874 0 18.375 0.587617 18.375 1.3125V5.25H23.1875C23.9124 5.25 24.5 5.83762 24.5 6.5625V26.25H25.5938C25.9562 26.25 26.25 26.5438 26.25 26.9062ZM18.5938 10.5H16.4062C16.0438 10.5 15.75 10.7938 15.75 11.1562V13.3438C15.75 13.7062 16.0438 14 16.4062 14H18.5938C18.9562 14 19.25 13.7062 19.25 13.3438V11.1562C19.25 10.7938 18.9562 10.5 18.5938 10.5ZM9.40625 14H11.5938C11.9562 14 12.25 13.7062 12.25 13.3438V11.1562C12.25 10.7938 11.9562 10.5 11.5938 10.5H9.40625C9.04384 10.5 8.75 10.7938 8.75 11.1562V13.3438C8.75 13.7062 9.04384 14 9.40625 14ZM15.0938 21H12.9062C12.5438 21 12.25 21.2938 12.25 21.6562V26.25H15.75V21.6562C15.75 21.2938 15.4562 21 15.0938 21ZM18.5938 15.75H16.4062C16.0438 15.75 15.75 16.0438 15.75 16.4062V18.5938C15.75 18.9562 16.0438 19.25 16.4062 19.25H18.5938C18.9562 19.25 19.25 18.9562 19.25 18.5938V16.4062C19.25 16.0438 18.9562 15.75 18.5938 15.75ZM12.25 16.4062C12.25 16.0438 11.9562 15.75 11.5938 15.75H9.40625C9.04384 15.75 8.75 16.0438 8.75 16.4062V18.5938C8.75 18.9562 9.04384 19.25 9.40625 19.25H11.5938C11.9562 19.25 12.25 18.9562 12.25 18.5938V16.4062ZM11.7031 5.25H13.125V6.67188C13.125 6.7589 13.1596 6.84236 13.2211 6.90389C13.2826 6.96543 13.3661 7 13.4531 7H14.5469C14.6339 7 14.7174 6.96543 14.7789 6.90389C14.8404 6.84236 14.875 6.7589 14.875 6.67188V5.25H16.2969C16.3839 5.25 16.4674 5.21543 16.5289 5.15389C16.5904 5.09236 16.625 5.0089 16.625 4.92188V3.82812C16.625 3.7411 16.5904 3.65764 16.5289 3.59611C16.4674 3.53457 16.3839 3.5 16.2969 3.5H14.875V2.07812C14.875 1.9911 14.8404 1.90764 14.7789 1.84611C14.7174 1.78457 14.6339 1.75 14.5469 1.75H13.4531C13.3661 1.75 13.2826 1.78457 13.2211 1.84611C13.1596 1.90764 13.125 1.9911 13.125 2.07812V3.5H11.7031C11.6161 3.5 11.5326 3.53457 11.4711 3.59611C11.4096 3.65764 11.375 3.7411 11.375 3.82812V4.92188C11.375 5.0089 11.4096 5.09236 11.4711 5.15389C11.5326 5.21543 11.6161 5.25 11.7031 5.25Z" fill="#8C4BB8"/>
</svg>
