<svg width="24" height="24" viewBox="0 0 24 24" fill="none" xmlns="http://www.w3.org/2000/svg">
<path d="M12 0C5.37097 0 0 5.37097 0 12C0 18.629 5.37097 24 12 24C18.629 24 24 18.629 24 12C24 5.37097 18.629 0 12 0ZM16.4753 15.1452L15.5076 16.3548C15.4441 16.4342 15.3655 16.5004 15.2765 16.5494C15.1874 16.5985 15.0896 16.6295 14.9885 16.6407C14.8875 16.6519 14.7852 16.6432 14.6875 16.6149C14.5899 16.5866 14.4987 16.5393 14.4194 16.4758L11.1774 14.07C10.9509 13.8886 10.7681 13.6587 10.6424 13.3971C10.5168 13.1355 10.4516 12.849 10.4516 12.5589V5.03226C10.4516 4.82693 10.5332 4.63001 10.6784 4.48482C10.8236 4.33963 11.0205 4.25806 11.2258 4.25806H12.7742C12.9795 4.25806 13.1764 4.33963 13.3216 4.48482C13.4668 4.63001 13.5484 4.82693 13.5484 5.03226V12L16.3548 14.0565C16.4343 14.12 16.5004 14.1986 16.5495 14.2877C16.5985 14.3768 16.6295 14.4747 16.6407 14.5758C16.6519 14.6769 16.643 14.7793 16.6147 14.877C16.5863 14.9746 16.5389 15.0658 16.4753 15.1452Z" fill="black"/>
</svg>
