<svg width="20" height="20" viewBox="0 0 20 20" fill="none" xmlns="http://www.w3.org/2000/svg">
<path d="M17.4648 4.37415C16.1289 4.39368 15.0312 5.48358 15.0039 6.81959C14.9844 7.76886 15.4922 8.60094 16.2539 9.03846V13.4371C16.2539 15.6755 14.293 17.4999 11.8789 17.4999C9.53516 17.4999 7.61328 15.7771 7.50781 13.6247C10.3516 13.0387 12.5 10.5151 12.5 7.49932V1.42867C12.5 0.983337 12.1836 0.596597 11.7461 0.510655L9.28906 0.0184408C8.78125 -0.0831272 8.28906 0.245016 8.1875 0.752856L8.0625 1.36617C7.96094 1.87401 8.28906 2.36623 8.79687 2.46779L9.99609 2.70609V7.44853C9.99609 9.51505 8.34766 11.2261 6.28125 11.2456C4.19531 11.2651 2.49609 9.57756 2.49609 7.49541V2.70999L3.69531 2.4717C4.20312 2.37013 4.53125 1.87792 4.42969 1.37008L4.30859 0.756762C4.20703 0.248922 3.71484 -0.0792208 3.20703 0.0223473L0.753906 0.506749C0.316406 0.596597 0 0.979431 0 1.42867V7.49932C0 10.519 2.15234 13.0465 5.00391 13.6247C5.10547 17.1561 8.14844 20 11.875 20C15.6641 20 18.75 17.0545 18.75 13.4371V9.03846C19.4961 8.60485 20 7.80012 20 6.87428C20 5.47968 18.8594 4.35462 17.4648 4.37415ZM17.5 7.49932C17.1562 7.49932 16.875 7.21805 16.875 6.87428C16.875 6.53052 17.1562 6.24925 17.5 6.24925C17.8438 6.24925 18.125 6.53052 18.125 6.87428C18.125 7.21805 17.8438 7.49932 17.5 7.49932Z" fill="black"/>
</svg>
