<svg width="20" height="20" viewBox="0 0 20 20" fill="none" xmlns="http://www.w3.org/2000/svg">
<path d="M18.75 19.2188V20H1.25V19.2188C1.25 18.9599 1.45988 18.75 1.71875 18.75H2.5V4.6875C2.5 4.16973 2.91973 3.75 3.4375 3.75H6.875V0.9375C6.875 0.419727 7.29473 0 7.8125 0H12.1875C12.7053 0 13.125 0.419727 13.125 0.9375V3.75H16.5625C17.0803 3.75 17.5 4.16973 17.5 4.6875V18.75H18.2812C18.5401 18.75 18.75 18.9599 18.75 19.2188ZM13.2812 7.5H11.7188C11.4599 7.5 11.25 7.70988 11.25 7.96875V9.53125C11.25 9.79012 11.4599 10 11.7188 10H13.2812C13.5401 10 13.75 9.79012 13.75 9.53125V7.96875C13.75 7.70988 13.5401 7.5 13.2812 7.5ZM6.71875 10H8.28125C8.54012 10 8.75 9.79012 8.75 9.53125V7.96875C8.75 7.70988 8.54012 7.5 8.28125 7.5H6.71875C6.45988 7.5 6.25 7.70988 6.25 7.96875V9.53125C6.25 9.79012 6.45988 10 6.71875 10ZM10.7812 15H9.21875C8.95988 15 8.75 15.2099 8.75 15.4688V18.75H11.25V15.4688C11.25 15.2099 11.0401 15 10.7812 15ZM13.2812 11.25H11.7188C11.4599 11.25 11.25 11.4599 11.25 11.7188V13.2812C11.25 13.5401 11.4599 13.75 11.7188 13.75H13.2812C13.5401 13.75 13.75 13.5401 13.75 13.2812V11.7188C13.75 11.4599 13.5401 11.25 13.2812 11.25ZM8.75 11.7188C8.75 11.4599 8.54012 11.25 8.28125 11.25H6.71875C6.45988 11.25 6.25 11.4599 6.25 11.7188V13.2812C6.25 13.5401 6.45988 13.75 6.71875 13.75H8.28125C8.54012 13.75 8.75 13.5401 8.75 13.2812V11.7188ZM8.35938 3.75H9.375V4.76562C9.375 4.82779 9.39969 4.8874 9.44365 4.93135C9.4876 4.97531 9.54721 5 9.60938 5H10.3906C10.4528 5 10.5124 4.97531 10.5564 4.93135C10.6003 4.8874 10.625 4.82779 10.625 4.76562V3.75H11.6406C11.7028 3.75 11.7624 3.72531 11.8064 3.68135C11.8503 3.6374 11.875 3.57779 11.875 3.51562V2.73438C11.875 2.67221 11.8503 2.6126 11.8064 2.56865C11.7624 2.52469 11.7028 2.5 11.6406 2.5H10.625V1.48438C10.625 1.42221 10.6003 1.3626 10.5564 1.31865C10.5124 1.27469 10.4528 1.25 10.3906 1.25H9.60938C9.54721 1.25 9.4876 1.27469 9.44365 1.31865C9.39969 1.3626 9.375 1.42221 9.375 1.48438V2.5H8.35938C8.29721 2.5 8.2376 2.52469 8.19365 2.56865C8.14969 2.6126 8.125 2.67221 8.125 2.73438V3.51562C8.125 3.57779 8.14969 3.6374 8.19365 3.68135C8.2376 3.72531 8.29721 3.75 8.35938 3.75Z" fill="black"/>
</svg>
