<svg width="16" height="16" viewBox="0 0 16 16" fill="none" xmlns="http://www.w3.org/2000/svg">
<path d="M15.2307 9.86644L13.8994 9.09768C14.0338 8.37269 14.0338 7.62893 13.8994 6.90393L15.2307 6.13519C15.3838 6.04769 15.4525 5.86644 15.4025 5.69769C15.0557 4.58519 14.465 3.57894 13.6932 2.74144C13.5744 2.61331 13.3807 2.58206 13.2307 2.66956L11.8994 3.43831C11.34 2.95706 10.6963 2.58519 9.99941 2.34144V0.80706C9.99941 0.63206 9.87753 0.478936 9.70566 0.441436C8.55878 0.185186 7.38378 0.197686 6.29316 0.441436C6.12128 0.478936 5.99941 0.63206 5.99941 0.80706V2.34456C5.30566 2.59144 4.66191 2.96331 4.09941 3.44144L2.77128 2.67269C2.61816 2.58519 2.42753 2.61331 2.30878 2.74456C1.53691 3.57894 0.946285 4.58519 0.59941 5.70081C0.546285 5.86956 0.61816 6.05081 0.771285 6.13831L2.10253 6.90706C1.96816 7.63206 1.96816 8.37581 2.10253 9.10081L0.771285 9.86956C0.61816 9.95706 0.54941 10.1383 0.59941 10.3071C0.946285 11.4196 1.53691 12.4258 2.30878 13.2633C2.42753 13.3914 2.62128 13.4227 2.77128 13.3352L4.10253 12.5664C4.66191 13.0477 5.30566 13.4196 6.00253 13.6633V15.2008C6.00253 15.3758 6.12441 15.5289 6.29628 15.5664C7.44316 15.8227 8.61816 15.8102 9.70878 15.5664C9.88066 15.5289 10.0025 15.3758 10.0025 15.2008V13.6633C10.6963 13.4164 11.34 13.0446 11.9025 12.5664L13.2338 13.3352C13.3869 13.4227 13.5775 13.3946 13.6963 13.2633C14.4682 12.4289 15.0588 11.4227 15.4057 10.3071C15.4525 10.1352 15.3838 9.95394 15.2307 9.86644ZM7.99941 10.5008C6.62128 10.5008 5.49941 9.37893 5.49941 8.00081C5.49941 6.62269 6.62128 5.50081 7.99941 5.50081C9.37753 5.50081 10.4994 6.62269 10.4994 8.00081C10.4994 9.37893 9.37753 10.5008 7.99941 10.5008Z" fill="white"/>
</svg>
