<svg width="12" height="12" viewBox="0 0 12 12" fill="none" xmlns="http://www.w3.org/2000/svg">
<path d="M3.32964 4.33073H4.66297V5.66406C4.66297 5.75247 4.69809 5.83725 4.7606 5.89977C4.82311 5.96228 4.9079 5.9974 4.9963 5.9974H6.32964C6.41804 5.9974 6.50283 5.96228 6.56534 5.89977C6.62785 5.83725 6.66297 5.75247 6.66297 5.66406V4.33073H7.9963C8.08471 4.33073 8.16949 4.29561 8.232 4.2331C8.29452 4.17059 8.32964 4.0858 8.32964 3.9974V2.66406C8.32964 2.57566 8.29452 2.49087 8.232 2.42836C8.16949 2.36585 8.08471 2.33073 7.9963 2.33073H6.66297V0.997396C6.66297 0.90899 6.62785 0.824206 6.56534 0.761694C6.50283 0.699181 6.41804 0.664062 6.32964 0.664062H4.9963C4.9079 0.664062 4.82311 0.699181 4.7606 0.761694C4.69809 0.824206 4.66297 0.90899 4.66297 0.997396V2.33073H3.32964C3.24123 2.33073 3.15645 2.36585 3.09393 2.42836C3.03142 2.49087 2.9963 2.57566 2.9963 2.66406V3.9974C2.9963 4.0858 3.03142 4.17059 3.09393 4.2331C3.15645 4.29561 3.24123 4.33073 3.32964 4.33073ZM11.8336 7.67052C11.7688 7.58222 11.6873 7.50759 11.5936 7.45091C11.4999 7.39422 11.3959 7.3566 11.2877 7.3402C11.1794 7.32381 11.0689 7.32896 10.9627 7.35536C10.8564 7.38177 10.7564 7.4289 10.6684 7.49406L8.17526 9.33115H5.66255C5.57415 9.33115 5.48936 9.29603 5.42685 9.23351C5.36434 9.171 5.32922 9.08622 5.32922 8.99781C5.32922 8.90941 5.36434 8.82462 5.42685 8.76211C5.48936 8.6996 5.57415 8.66448 5.66255 8.66448H7.29255C7.62589 8.66448 7.93318 8.43802 7.98776 8.1101C8.00387 8.01435 7.99891 7.91624 7.97323 7.8226C7.94755 7.72896 7.90175 7.64204 7.83904 7.56791C7.77634 7.49378 7.69822 7.43421 7.61013 7.39335C7.52204 7.3525 7.42611 7.33134 7.32901 7.33135H3.99568C3.43348 7.33124 2.88832 7.52431 2.45151 7.87823L1.48276 8.66448H0.329427C0.241207 8.66508 0.156771 8.70039 0.0943883 8.76277C0.0320058 8.82516 -0.00330591 8.90959 -0.00390625 8.99781V10.9978C-0.00330591 11.086 0.0320058 11.1705 0.0943883 11.2329C0.156771 11.2952 0.241207 11.3305 0.329427 11.3311H7.55859C8.02097 11.33 8.47106 11.1822 8.84401 10.9089L11.6571 8.83448C11.8347 8.70338 11.953 8.5072 11.9861 8.28899C12.0191 8.07078 11.9643 7.84835 11.8336 7.67052Z" fill="white"/>
</svg>
