<svg width="12" height="12" viewBox="0 0 12 12" fill="none" xmlns="http://www.w3.org/2000/svg">
<path d="M7.8 7.5H8.7C8.85 7.5 9 7.35 9 7.2V4.05C9 3.9 8.85 3.75 8.7 3.75H7.8C7.65 3.75 7.5 3.9 7.5 4.05V7.2C7.5 7.35 7.65 7.5 7.8 7.5ZM10.05 7.5H10.95C11.1 7.5 11.25 7.35 11.25 7.2V1.8C11.25 1.65 11.1 1.5 10.95 1.5H10.05C9.9 1.5 9.75 1.65 9.75 1.8V7.2C9.75 7.35 9.9 7.5 10.05 7.5ZM3.3 7.5H4.2C4.35 7.5 4.5 7.35 4.5 7.2V5.55C4.5 5.4 4.35 5.25 4.2 5.25H3.3C3.15 5.25 3 5.4 3 5.55V7.2C3 7.35 3.15 7.5 3.3 7.5ZM5.55 7.5H6.45C6.6 7.5 6.75 7.35 6.75 7.2V2.55C6.75 2.4 6.6 2.25 6.45 2.25H5.55C5.4 2.25 5.25 2.4 5.25 2.55V7.2C5.25 7.35 5.4 7.5 5.55 7.5ZM11.625 9H1.5V1.875C1.5 1.66781 1.33219 1.5 1.125 1.5H0.375C0.167812 1.5 0 1.66781 0 1.875V9.75C0 10.1641 0.335859 10.5 0.75 10.5H11.625C11.8322 10.5 12 10.3322 12 10.125V9.375C12 9.16781 11.8322 9 11.625 9Z" fill="white"/>
</svg>
