<svg width="16" height="16" viewBox="0 0 16 16" fill="none" xmlns="http://www.w3.org/2000/svg">
<path d="M12 9.60156C12.4747 9.60156 12.9387 9.46081 13.3334 9.19709C13.728 8.93337 14.0357 8.55855 14.2173 8.12C14.399 7.68146 14.4465 7.1989 14.3539 6.73335C14.2613 6.26779 14.0327 5.84015 13.6971 5.50451C13.3614 5.16886 12.9338 4.94028 12.4682 4.84768C12.0027 4.75507 11.5201 4.8026 11.0816 4.98425C10.643 5.1659 10.2682 5.47352 10.0045 5.86819C9.74076 6.26287 9.6 6.72689 9.6 7.20156C9.6 7.83808 9.85286 8.44853 10.3029 8.89862C10.753 9.34871 11.3635 9.60156 12 9.60156ZM13.2 10.4016C13.1401 10.4013 13.0805 10.4105 13.0235 10.4288C12.3605 10.6592 11.6392 10.6592 10.9762 10.4288C10.9193 10.4105 10.8598 10.4014 10.8 10.4016C10.431 10.4016 10.0656 10.4745 9.72489 10.6162C9.38417 10.7579 9.07481 10.9655 8.8146 11.2271C8.55439 11.4888 8.34847 11.7993 8.20867 12.1408C8.06887 12.4823 7.99796 12.8481 8 13.2171C8.0035 13.8736 8.54325 14.4016 9.2 14.4016H14.8C15.4567 14.4016 15.9965 13.8736 16 13.2171C16.002 12.8481 15.9311 12.4823 15.7913 12.1408C15.6515 11.7993 15.4456 11.4888 15.1854 11.2271C14.9252 10.9655 14.6158 10.7579 14.2751 10.6162C13.9344 10.4745 13.569 10.4016 13.2 10.4016ZM8.24775 10.6628C8.41683 10.4965 8.6018 10.3472 8.8 10.2171V4.80156C8.8 4.58939 8.71571 4.38591 8.56568 4.23588C8.41566 4.08585 8.21217 4.00156 8 4.00156H7.2V2.40156C7.2 2.18939 7.11571 1.98591 6.96568 1.83588C6.81566 1.68585 6.61217 1.60156 6.4 1.60156H2.4C2.18783 1.60156 1.98434 1.68585 1.83431 1.83588C1.68429 1.98591 1.6 2.18939 1.6 2.40156V4.00156H0.8C0.587827 4.00156 0.384344 4.08585 0.234315 4.23588C0.0842855 4.38591 0 4.58939 0 4.80156L0 14.0016C0 14.1076 0.0421427 14.2094 0.117157 14.2844C0.192172 14.3594 0.293913 14.4016 0.4 14.4016H7.60775C7.34715 14.0629 7.20401 13.6486 7.2 13.2213C7.19612 12.7467 7.28677 12.276 7.46666 11.8367C7.64654 11.3975 7.91207 10.9984 8.24775 10.6628ZM3.6 11.7016C3.6 11.7811 3.56839 11.8574 3.51213 11.9137C3.45587 11.97 3.37956 12.0016 3.3 12.0016H2.3C2.22043 12.0016 2.14413 11.97 2.08787 11.9137C2.03161 11.8574 2 11.7811 2 11.7016V10.7016C2 10.622 2.03161 10.5457 2.08787 10.4894C2.14413 10.4332 2.22043 10.4016 2.3 10.4016H3.3C3.37956 10.4016 3.45587 10.4332 3.51213 10.4894C3.56839 10.5457 3.6 10.622 3.6 10.7016V11.7016ZM3.6 8.50156C3.6 8.58113 3.56839 8.65743 3.51213 8.7137C3.45587 8.76996 3.37956 8.80156 3.3 8.80156H2.3C2.22043 8.80156 2.14413 8.76996 2.08787 8.7137C2.03161 8.65743 2 8.58113 2 8.50156V7.50156C2 7.422 2.03161 7.34569 2.08787 7.28943C2.14413 7.23317 2.22043 7.20156 2.3 7.20156H3.3C3.37956 7.20156 3.45587 7.23317 3.51213 7.28943C3.56839 7.34569 3.6 7.422 3.6 7.50156V8.50156ZM4.8 5.45156C4.8 5.49135 4.7842 5.5295 4.75607 5.55763C4.72794 5.58576 4.68978 5.60156 4.65 5.60156H4.15C4.11022 5.60156 4.07206 5.58576 4.04393 5.55763C4.0158 5.5295 4 5.49135 4 5.45156V4.80156H3.35C3.31022 4.80156 3.27206 4.78576 3.24393 4.75763C3.2158 4.7295 3.2 4.69135 3.2 4.65156V4.15156C3.2 4.11178 3.2158 4.07363 3.24393 4.0455C3.27206 4.01737 3.31022 4.00156 3.35 4.00156H4V3.35156C4 3.31178 4.0158 3.27363 4.04393 3.2455C4.07206 3.21737 4.11022 3.20156 4.15 3.20156H4.65C4.68978 3.20156 4.72794 3.21737 4.75607 3.2455C4.7842 3.27363 4.8 3.31178 4.8 3.35156V4.00156H5.45C5.48978 4.00156 5.52794 4.01737 5.55607 4.0455C5.5842 4.07363 5.6 4.11178 5.6 4.15156V4.65156C5.6 4.69135 5.5842 4.7295 5.55607 4.75763C5.52794 4.78576 5.48978 4.80156 5.45 4.80156H4.8V5.45156ZM6.8 11.7016C6.8 11.7811 6.76839 11.8574 6.71213 11.9137C6.65587 11.97 6.57956 12.0016 6.5 12.0016H5.5C5.42043 12.0016 5.34413 11.97 5.28787 11.9137C5.23161 11.8574 5.2 11.7811 5.2 11.7016V10.7016C5.2 10.622 5.23161 10.5457 5.28787 10.4894C5.34413 10.4332 5.42043 10.4016 5.5 10.4016H6.5C6.57956 10.4016 6.65587 10.4332 6.71213 10.4894C6.76839 10.5457 6.8 10.622 6.8 10.7016V11.7016ZM6.8 8.50156C6.8 8.58113 6.76839 8.65743 6.71213 8.7137C6.65587 8.76996 6.57956 8.80156 6.5 8.80156H5.5C5.42043 8.80156 5.34413 8.76996 5.28787 8.7137C5.23161 8.65743 5.2 8.58113 5.2 8.50156V7.50156C5.2 7.422 5.23161 7.34569 5.28787 7.28943C5.34413 7.23317 5.42043 7.20156 5.5 7.20156H6.5C6.57956 7.20156 6.65587 7.23317 6.71213 7.28943C6.76839 7.34569 6.8 7.422 6.8 7.50156V8.50156Z" fill="white"/>
</svg>
