<svg width="12" height="12" viewBox="0 0 12 12" fill="none" xmlns="http://www.w3.org/2000/svg">
<path d="M6 6C7.65703 6 9 4.65703 9 3C9 1.34297 7.65703 0 6 0C4.34297 0 3 1.34297 3 3C3 4.65703 4.34297 6 6 6ZM3.1875 9.9375C3.1875 10.2492 3.43828 10.5 3.75 10.5C4.06172 10.5 4.3125 10.2492 4.3125 9.9375C4.3125 9.62578 4.06172 9.375 3.75 9.375C3.43828 9.375 3.1875 9.62578 3.1875 9.9375ZM8.25 6.76406V7.9125C9.10547 8.08594 9.75 8.84531 9.75 9.75V10.7273C9.75 10.9055 9.62344 11.0602 9.44766 11.0953L8.69297 11.2453C8.59219 11.2664 8.49375 11.2008 8.47266 11.0977L8.4 10.7297C8.37891 10.6289 8.44453 10.5281 8.54766 10.5094L9 10.418V9.75C9 8.27812 6.75 8.22422 6.75 9.79453V10.4203L7.20234 10.5117C7.30312 10.5328 7.36875 10.6312 7.35 10.732L7.27734 11.1C7.25625 11.2008 7.15781 11.2664 7.05703 11.2477L6.32578 11.1492C6.14062 11.1234 6.00234 10.9664 6.00234 10.7766V9.75C6.00234 8.84531 6.64688 8.08828 7.50234 7.9125V6.85312C7.45078 6.86953 7.39922 6.87891 7.34766 6.89766C6.92578 7.04531 6.47344 7.12734 6.00234 7.12734C5.53125 7.12734 5.07891 7.04531 4.65703 6.89766C4.48359 6.83672 4.30781 6.79922 4.12734 6.77578V8.68828C4.66875 8.85 5.06484 9.34688 5.06484 9.93984C5.06484 10.6641 4.47656 11.2523 3.75234 11.2523C3.02813 11.2523 2.43984 10.6641 2.43984 9.93984C2.43984 9.34688 2.83594 8.85 3.37734 8.68828V6.80391C1.88672 7.05469 0.75 8.33906 0.75 9.9V10.95C0.75 11.5289 1.22109 12 1.8 12H10.2C10.7789 12 11.25 11.5289 11.25 10.95V9.9C11.25 8.2125 9.91875 6.84609 8.25 6.76406Z" fill="white"/>
</svg>
