<svg width="16" height="16" viewBox="0 0 16 16" fill="none" xmlns="http://www.w3.org/2000/svg">
<path d="M13.25 0H2.75C2.3375 0 2 0.3375 2 0.75V2.25C2 2.6625 2.3375 3 2.75 3H13.25C13.6625 3 14 2.6625 14 2.25V0.75C14 0.3375 13.6625 0 13.25 0ZM3 15C3 15.55 3.45 16 4 16H12C12.55 16 13 15.55 13 15V4H3V15ZM5 9.25C5 9.1125 5.1125 9 5.25 9H7V7.25C7 7.1125 7.1125 7 7.25 7H8.75C8.8875 7 9 7.1125 9 7.25V9H10.75C10.8875 9 11 9.1125 11 9.25V10.75C11 10.8875 10.8875 11 10.75 11H9V12.75C9 12.8875 8.8875 13 8.75 13H7.25C7.1125 13 7 12.8875 7 12.75V11H5.25C5.1125 11 5 10.8875 5 10.75V9.25Z" fill="white"/>
</svg>
