<svg width="28" height="28" viewBox="0 0 28 28" fill="none" xmlns="http://www.w3.org/2000/svg">
<path d="M10.15 12.6008H12.6V15.0508C12.6 15.1436 12.6369 15.2326 12.7025 15.2983C12.7682 15.3639 12.8572 15.4008 12.95 15.4008H15.05C15.1428 15.4008 15.2318 15.3639 15.2975 15.2983C15.3631 15.2326 15.4 15.1436 15.4 15.0508V12.6008H17.85C17.9428 12.6008 18.0318 12.5639 18.0975 12.4983C18.1631 12.4326 18.2 12.3436 18.2 12.2508V10.1508C18.2 10.058 18.1631 9.96893 18.0975 9.90329C18.0318 9.83766 17.9428 9.80078 17.85 9.80078H15.4V7.35078C15.4 7.25796 15.3631 7.16893 15.2975 7.10329C15.2318 7.03766 15.1428 7.00078 15.05 7.00078H12.95C12.8572 7.00078 12.7682 7.03766 12.7025 7.10329C12.6369 7.16893 12.6 7.25796 12.6 7.35078V9.80078H10.15C10.0572 9.80078 9.96815 9.83766 9.90251 9.90329C9.83687 9.96893 9.8 10.058 9.8 10.1508V12.2508C9.8 12.3436 9.83687 12.4326 9.90251 12.4983C9.96815 12.5639 10.0572 12.6008 10.15 12.6008ZM25.2 4.90078C25.1984 4.34432 24.9766 3.81112 24.5831 3.41764C24.1897 3.02417 23.6565 2.8024 23.1 2.80078H4.9C4.34354 2.8024 3.81034 3.02417 3.41686 3.41764C3.02338 3.81112 2.80162 4.34432 2.8 4.90078V19.6008H25.2V4.90078ZM22.4 16.8008H5.6V5.60078H22.4V16.8008ZM27.3 21.0008H16.6924C16.66 21.8675 16.0488 22.4008 15.26 22.4008H12.6C11.7823 22.4008 11.1562 21.6365 11.1663 21.0008H0.7C0.514348 21.0008 0.336301 21.0745 0.205025 21.2058C0.0737498 21.3371 0 21.5151 0 21.7008L0 22.4008C0.00219286 23.1427 0.297896 23.8536 0.822523 24.3783C1.34715 24.9029 2.05807 25.1986 2.8 25.2008H25.2C25.9419 25.1986 26.6528 24.9029 27.1775 24.3783C27.7021 23.8536 27.9978 23.1427 28 22.4008V21.7008C28 21.5151 27.9263 21.3371 27.795 21.2058C27.6637 21.0745 27.4857 21.0008 27.3 21.0008Z" fill="#8C4BB8"/>
</svg>
