<svg width="12" height="12" viewBox="0 0 12 12" fill="none" xmlns="http://www.w3.org/2000/svg">
<path d="M9 6.84375V7.40625C9 7.56094 8.85536 7.6875 8.67857 7.6875H6.64286V9.46875C6.64286 9.62344 6.49821 9.75 6.32143 9.75H5.67857C5.50179 9.75 5.35714 9.62344 5.35714 9.46875V7.6875H3.32143C3.14464 7.6875 3 7.56094 3 7.40625V6.84375C3 6.68906 3.14464 6.5625 3.32143 6.5625H5.35714V4.78125C5.35714 4.62656 5.50179 4.5 5.67857 4.5H6.32143C6.49821 4.5 6.64286 4.62656 6.64286 4.78125V6.5625H8.67857C8.85536 6.5625 9 6.68906 9 6.84375ZM12 2.625V10.875C12 11.4961 11.4241 12 10.7143 12H1.28571C0.575893 12 0 11.4961 0 10.875V2.625C0 2.00391 0.575893 1.5 1.28571 1.5H2.57143V0.28125C2.57143 0.126563 2.71607 0 2.89286 0H3.96429C4.14107 0 4.28571 0.126563 4.28571 0.28125V1.5H7.71429V0.28125C7.71429 0.126563 7.85893 0 8.03571 0H9.10714C9.28393 0 9.42857 0.126563 9.42857 0.28125V1.5H10.7143C11.4241 1.5 12 2.00391 12 2.625ZM10.7143 10.7344V3.75H1.28571V10.7344C1.28571 10.8117 1.35804 10.875 1.44643 10.875H10.5536C10.642 10.875 10.7143 10.8117 10.7143 10.7344Z" fill="#F7C04A"/>
</svg>
