<svg width="12" height="12" viewBox="0 0 12 12" fill="none" xmlns="http://www.w3.org/2000/svg">
<path d="M4.21875 6.75H3.28125C3.12656 6.75 3 6.62344 3 6.46875V5.53125C3 5.37656 3.12656 5.25 3.28125 5.25H4.21875C4.37344 5.25 4.5 5.37656 4.5 5.53125V6.46875C4.5 6.62344 4.37344 6.75 4.21875 6.75ZM6.75 6.46875V5.53125C6.75 5.37656 6.62344 5.25 6.46875 5.25H5.53125C5.37656 5.25 5.25 5.37656 5.25 5.53125V6.46875C5.25 6.62344 5.37656 6.75 5.53125 6.75H6.46875C6.62344 6.75 6.75 6.62344 6.75 6.46875ZM9 6.46875V5.53125C9 5.37656 8.87344 5.25 8.71875 5.25H7.78125C7.62656 5.25 7.5 5.37656 7.5 5.53125V6.46875C7.5 6.62344 7.62656 6.75 7.78125 6.75H8.71875C8.87344 6.75 9 6.62344 9 6.46875ZM6.75 8.71875V7.78125C6.75 7.62656 6.62344 7.5 6.46875 7.5H5.53125C5.37656 7.5 5.25 7.62656 5.25 7.78125V8.71875C5.25 8.87344 5.37656 9 5.53125 9H6.46875C6.62344 9 6.75 8.87344 6.75 8.71875ZM4.5 8.71875V7.78125C4.5 7.62656 4.37344 7.5 4.21875 7.5H3.28125C3.12656 7.5 3 7.62656 3 7.78125V8.71875C3 8.87344 3.12656 9 3.28125 9H4.21875C4.37344 9 4.5 8.87344 4.5 8.71875ZM9 8.71875V7.78125C9 7.62656 8.87344 7.5 8.71875 7.5H7.78125C7.62656 7.5 7.5 7.62656 7.5 7.78125V8.71875C7.5 8.87344 7.62656 9 7.78125 9H8.71875C8.87344 9 9 8.87344 9 8.71875ZM11.25 2.625V10.875C11.25 11.4961 10.7461 12 10.125 12H1.875C1.25391 12 0.75 11.4961 0.75 10.875V2.625C0.75 2.00391 1.25391 1.5 1.875 1.5H3V0.28125C3 0.126563 3.12656 0 3.28125 0H4.21875C4.37344 0 4.5 0.126563 4.5 0.28125V1.5H7.5V0.28125C7.5 0.126563 7.62656 0 7.78125 0H8.71875C8.87344 0 9 0.126563 9 0.28125V1.5H10.125C10.7461 1.5 11.25 2.00391 11.25 2.625ZM10.125 10.7344V3.75H1.875V10.7344C1.875 10.8117 1.93828 10.875 2.01562 10.875H9.98438C10.0617 10.875 10.125 10.8117 10.125 10.7344Z" fill="#A08DE8"/>
</svg>
