<svg width="16" height="16" viewBox="0 0 16 16" fill="none" xmlns="http://www.w3.org/2000/svg">
<path d="M15.8525 7.45368L14.2222 6.01396V2.22396C14.2222 2.10608 14.1754 1.99304 14.092 1.90969C14.0087 1.82634 13.8957 1.77951 13.7778 1.77951H12C11.8821 1.77951 11.7691 1.82634 11.6857 1.90969C11.6024 1.99304 11.5556 2.10608 11.5556 2.22396V3.65924L8.74389 1.17674C8.56944 1.01868 8.23694 0.890625 8 0.890625C7.76306 0.890625 7.43167 1.01868 7.25722 1.17674L0.146111 7.45451C0.058495 7.54304 0.00649114 7.66069 0 7.78507C0.00567692 7.89371 0.045428 7.9978 0.113611 8.08257L0.708333 8.7434C0.801022 8.82658 0.917755 8.87814 1.04167 8.89063C1.1491 8.87989 1.25166 8.84046 1.33861 8.77646L1.78028 8.38757V14.224C1.78028 14.4597 1.87393 14.6858 2.04063 14.8525C2.20733 15.0192 2.43342 15.1128 2.66917 15.1128H13.3333C13.5691 15.1128 13.7952 15.0192 13.9619 14.8525C14.1286 14.6858 14.2222 14.4597 14.2222 14.224V8.38729L14.6642 8.77618C14.7515 8.84009 14.8543 8.87959 14.9619 8.89063C15.0847 8.87779 15.2003 8.82612 15.2917 8.74313L15.8864 8.08174C15.9502 7.99475 15.9895 7.89218 16 7.78479C15.9872 7.66156 15.9356 7.54559 15.8525 7.45368ZM8 5.77951C8.35161 5.77951 8.69533 5.88378 8.98768 6.07912C9.28003 6.27447 9.5079 6.55212 9.64245 6.87697C9.77701 7.20181 9.81221 7.55926 9.74362 7.90412C9.67502 8.24897 9.5057 8.56574 9.25708 8.81437C9.00845 9.063 8.69168 9.23232 8.34683 9.30091C8.00197 9.36951 7.64452 9.3343 7.31967 9.19975C6.99483 9.06519 6.71718 8.83733 6.52183 8.54497C6.32649 8.25262 6.22222 7.9089 6.22222 7.55729C6.22222 7.0858 6.40952 6.63361 6.74292 6.30021C7.07632 5.96682 7.5285 5.77951 8 5.77951ZM11.1111 13.3351H4.88889C4.77101 13.3351 4.65797 13.2882 4.57462 13.2049C4.49127 13.1215 4.44444 13.0085 4.44444 12.8906C4.44444 12.1834 4.7254 11.5051 5.22549 11.005C5.72559 10.5049 6.40387 10.224 7.11111 10.224H8.88889C9.59613 10.224 10.2744 10.5049 10.7745 11.005C11.2746 11.5051 11.5556 12.1834 11.5556 12.8906C11.5556 13.0085 11.5087 13.1215 11.4254 13.2049C11.342 13.2882 11.229 13.3351 11.1111 13.3351Z" fill="#4365D0"/>
</svg>
