<svg width="12" height="12" viewBox="0 0 12 12" fill="none" xmlns="http://www.w3.org/2000/svg">
<path d="M10.7143 1.5H9.42857V0.28125C9.42857 0.12593 9.28465 0 9.10714 0H8.03571C7.85821 0 7.71429 0.12593 7.71429 0.28125V1.5H4.28571V0.28125C4.28571 0.12593 4.14179 0 3.96429 0H2.89286C2.71535 0 2.57143 0.12593 2.57143 0.28125V1.5H1.28571C0.575625 1.5 0 2.00367 0 2.625V10.875C0 11.4963 0.575625 12 1.28571 12H10.7143C11.4244 12 12 11.4963 12 10.875V2.625C12 2.00367 11.4244 1.5 10.7143 1.5ZM10.5536 10.875H1.44643C1.4038 10.875 1.36293 10.8602 1.33279 10.8338C1.30265 10.8074 1.28571 10.7717 1.28571 10.7344V3.75H10.7143V10.7344C10.7143 10.7717 10.6974 10.8074 10.6672 10.8338C10.6371 10.8602 10.5962 10.875 10.5536 10.875ZM9.13797 6.17227L5.32613 9.48091C5.2001 9.5903 4.99658 9.58959 4.87154 9.47932L2.86018 7.70513C2.73517 7.59485 2.73597 7.41677 2.862 7.30737L3.47054 6.77918C3.59657 6.6698 3.80009 6.6705 3.9251 6.7808L5.10646 7.82285L8.0816 5.24048C8.20763 5.1311 8.41114 5.1318 8.53618 5.24208L9.13982 5.77453C9.26483 5.8848 9.264 6.06288 9.13797 6.17227Z" fill="#50C878"/>
</svg>
