<svg width="12" height="12" viewBox="0 0 12 12" fill="none" xmlns="http://www.w3.org/2000/svg">
<path d="M8.05547 8.78203L7.65703 9.18047C7.54688 9.29063 7.36875 9.29063 7.25859 9.18047L6 7.91953L4.74141 9.17813C4.63125 9.28828 4.45312 9.28828 4.34297 9.17813L3.94453 8.77969C3.83438 8.66953 3.83438 8.49141 3.94453 8.38125L5.20312 7.12266L3.94453 5.86406C3.83438 5.75391 3.83438 5.57578 3.94453 5.46562L4.34297 5.06719C4.45312 4.95703 4.63125 4.95703 4.74141 5.06719L6 6.32578L7.25859 5.06719C7.36875 4.95703 7.54688 4.95703 7.65703 5.06719L8.05547 5.46562C8.16563 5.57578 8.16563 5.75391 8.05547 5.86406L6.79453 7.125L8.05313 8.38359C8.16563 8.49375 8.16563 8.67188 8.05547 8.78203ZM11.25 2.625V10.875C11.25 11.4961 10.7461 12 10.125 12H1.875C1.25391 12 0.75 11.4961 0.75 10.875V2.625C0.75 2.00391 1.25391 1.5 1.875 1.5H3V0.28125C3 0.126563 3.12656 0 3.28125 0H4.21875C4.37344 0 4.5 0.126563 4.5 0.28125V1.5H7.5V0.28125C7.5 0.126563 7.62656 0 7.78125 0H8.71875C8.87344 0 9 0.126563 9 0.28125V1.5H10.125C10.7461 1.5 11.25 2.00391 11.25 2.625ZM10.125 10.7344V3.75H1.875V10.7344C1.875 10.8117 1.93828 10.875 2.01562 10.875H9.98438C10.0617 10.875 10.125 10.8117 10.125 10.7344Z" fill="#D9534F"/>
</svg>
