<svg width="12" height="12" viewBox="0 0 12 12" fill="none" xmlns="http://www.w3.org/2000/svg">
<path d="M6.00002 12C6.82783 12 7.49931 11.3285 7.49931 10.5H4.50072C4.50072 11.3285 5.1722 12 6.00002 12ZM11.0482 8.49117C10.5954 8.00461 9.74814 7.27266 9.74814 4.875C9.74814 3.05391 8.47127 1.59609 6.74955 1.23844V0.75C6.74955 0.335859 6.41392 0 6.00002 0C5.58611 0 5.25048 0.335859 5.25048 0.75V1.23844C3.52877 1.59609 2.25189 3.05391 2.25189 4.875C2.25189 7.27266 1.40463 8.00461 0.951813 8.49117C0.811188 8.64234 0.748844 8.82305 0.750016 9C0.752594 9.38437 1.05423 9.75 1.50236 9.75H10.4977C10.9458 9.75 11.2477 9.38437 11.25 9C11.2512 8.82305 11.1888 8.64211 11.0482 8.49117Z" fill="white"/>
</svg>
